<svg width="22" height="23" viewBox="0 0 22 23" fill="none" xmlns="http://www.w3.org/2000/svg">
<path d="M7 16.9997H15M10.0177 2.76375L3.23539 8.03888C2.78202 8.3915 2.55534 8.56781 2.39203 8.78861C2.24737 8.9842 2.1396 9.20454 2.07403 9.43881C2 9.70327 2 9.99045 2 10.5648V17.7997C2 18.9198 2 19.4799 2.21799 19.9077C2.40973 20.284 2.71569 20.59 3.09202 20.7818C3.51984 20.9997 4.07989 20.9997 5.2 20.9997H16.8C17.9201 20.9997 18.4802 20.9997 18.908 20.7818C19.2843 20.59 19.5903 20.284 19.782 19.9077C20 19.4799 20 18.9198 20 17.7997V10.5648C20 9.99045 20 9.70327 19.926 9.43881C19.8604 9.20454 19.7526 8.9842 19.608 8.78861C19.4447 8.56781 19.218 8.3915 18.7646 8.03888L11.9823 2.76376C11.631 2.4905 11.4553 2.35388 11.2613 2.30136C11.0902 2.25502 10.9098 2.25502 10.7387 2.30136C10.5447 2.35388 10.369 2.4905 10.0177 2.76375Z" stroke="#1F1C0C" stroke-width="2.66667" stroke-linecap="round" stroke-linejoin="round"/>
</svg>
