<svg width="20" height="24" viewBox="0 0 20 24" fill="none" xmlns="http://www.w3.org/2000/svg">
<path d="M18.6655 16.5475L18.3772 16.9107C18.2167 16.7834 18.0205 16.7034 17.8121 16.682C11.9186 16.0878 8.10145 16.0309 2.20367 16.6674L18.6655 16.5475ZM18.6655 16.5475L18.3772 16.9107C18.5376 17.038 18.6549 17.2068 18.7166 17.3954C18.7783 17.584 18.7823 17.7856 18.7283 17.9761C18.6744 18.1664 18.5644 18.339 18.4099 18.4721C14.9327 21.4272 12.2979 22.7942 9.79306 22.7854C7.29279 22.7765 4.7883 21.3958 1.57269 18.4867L1.57251 18.4865M18.6655 16.5475L1.57251 18.4865M1.57251 18.4865C1.35527 18.2902 1.23304 18.0106 1.23304 17.7221V17.7213C1.23304 17.1899 1.64194 16.7282 2.20358 16.6674L1.57251 18.4865Z" stroke="#1F1C0C" stroke-width="0.92751"/>
<path d="M18.2434 16.6257V16.5481L17.8262 16.506C11.9245 15.9108 8.09752 15.8545 2.18781 16.4921L2.18781 16.4921L2.1852 16.4924C1.88167 16.5269 1.59943 16.6696 1.39359 16.8963C1.18747 17.1234 1.07281 17.4187 1.07462 17.7262L1.53837 17.7234M18.2434 16.6257L17.7797 16.9682C17.9264 16.9833 18.0654 17.0397 18.1799 17.1305C18.2944 17.2212 18.3794 17.3425 18.4245 17.4794C18.4696 17.6164 18.473 17.7632 18.4342 17.902C18.3954 18.0407 18.316 18.1655 18.2058 18.2612C14.7368 21.2087 12.1769 22.5084 9.79402 22.5002C7.41955 22.4919 4.99047 21.1817 1.78451 18.2822M18.2434 16.6257C18.3228 16.6644 18.3982 16.7117 18.468 16.7671C18.6525 16.9133 18.7911 17.11 18.865 17.3343C18.9389 17.5586 18.9444 17.7994 18.8808 18.0269C18.8172 18.2543 18.6876 18.4571 18.5098 18.6114L18.5061 18.6146L18.5061 18.6146C15.0208 21.5759 12.3507 22.9728 9.79241 22.9639C7.23775 22.9551 4.69771 21.5422 1.47344 18.6261L1.47201 18.6248C1.22177 18.3966 1.07462 18.0693 1.07462 17.7234H1.53837M18.2434 16.6257L2.23756 16.9532C2.04422 16.9752 1.86598 17.0659 1.73697 17.208C1.60797 17.3501 1.53725 17.5337 1.53837 17.7234M1.53837 17.7234C1.53837 17.9379 1.6299 18.1412 1.78451 18.2822M1.78451 18.2822L1.7845 18.2822L1.78451 18.2822ZM0.933309 16.5194C1.22679 16.1987 1.62925 15.9886 2.06932 15.9286L2.11887 15.9233C8.07909 15.28 11.9524 15.3376 17.8921 15.9371C18.2496 15.9735 18.5872 16.1107 18.8638 16.3303C19.1404 16.5498 19.3437 16.8419 19.4508 17.1698C19.5578 17.4975 19.5644 17.8482 19.47 18.1795C19.3756 18.5106 19.1839 18.8094 18.9163 19.0386C15.4139 22.0154 12.5938 23.547 9.79115 23.5364H9.79103C6.98452 23.5266 4.29417 21.9724 1.05066 19.0381C0.86436 18.8688 0.716574 18.6646 0.615865 18.4386C0.515114 18.2125 0.463459 17.969 0.463762 17.7233L0.463758 17.7218C0.462873 17.2803 0.62897 16.852 0.933309 16.5194Z" stroke="#1F1C0C" stroke-width="0.92751"/>
<path d="M15.6891 5.99999C15.6891 7.46445 15.0926 8.87138 14.0268 9.91058C12.9606 10.9502 11.5121 11.5362 9.99938 11.5362C8.48665 11.5362 7.03816 10.9502 5.97198 9.91058C4.90619 8.87138 4.30966 7.46445 4.30966 5.99999C4.30966 4.53552 4.90619 3.12859 5.97198 2.08939C7.03816 1.04981 8.48665 0.463755 9.99938 0.463755C11.5121 0.463755 12.9606 1.04981 14.0268 2.08939C15.0926 3.12859 15.6891 4.53552 15.6891 5.99999Z" stroke="#1F1C0C" stroke-width="0.92751"/>
<path d="M9.99938 10.9637C11.3426 10.9637 12.6332 10.4435 13.5865 9.514C14.5402 8.58407 15.0782 7.32029 15.0782 5.99999C15.0782 4.67968 14.5402 3.4159 13.5865 2.48597C12.6332 1.55643 11.3426 1.03624 9.99938 1.03624C8.65611 1.03624 7.36557 1.55643 6.41225 2.48597C5.45853 3.4159 4.92052 4.67968 4.92052 5.99999C4.92052 7.32029 5.45853 8.58407 6.41225 9.514C7.36557 10.4435 8.65611 10.9637 9.99938 10.9637ZM14.0268 9.91058C12.9606 10.9502 11.5121 11.5362 9.99938 11.5362C8.48665 11.5362 7.03816 10.9502 5.97198 9.91058C4.90619 8.87138 4.30966 7.46445 4.30966 5.99999C4.30966 4.53552 4.90619 3.12859 5.97198 2.08939C7.03816 1.04981 8.48665 0.463755 9.99938 0.463755C11.5121 0.463755 12.9606 1.04981 14.0268 2.08939C15.0926 3.12859 15.6891 4.53552 15.6891 5.99999C15.6891 7.46445 15.0926 8.87138 14.0268 9.91058Z" stroke="#1F1C0C" stroke-width="0.92751"/>
</svg>
